<svg width="66" height="66" viewBox="0 0 66 66" fill="none" xmlns="http://www.w3.org/2000/svg">
<g clip-path="url(#clip0_503_4175)">
<path d="M50.4548 13.2534L39.1915 16.4534L36.9494 8.56197L33.7928 9.4588L36.0349 17.3502L23.4086 20.9375L24.3054 24.0941L26.0731 23.5919L28.0254 28.1543L16.97 31.2953C14.8785 31.8921 13.1091 33.2941 12.05 35.1939C10.9909 37.0936 10.7286 39.3359 11.3207 41.4288L11.7691 43.0071L39.3891 35.1598L38.9407 33.5816C38.6037 32.3904 37.9999 31.2915 37.175 30.3684C36.4403 29.5458 35.5478 28.8792 34.5505 28.4084C33.5531 27.9375 32.4713 27.6719 31.3692 27.6274L29.2556 22.6877L47.7644 17.4291L52.0703 46.0553L15.5806 56.4225L16.4774 59.5791L55.7452 48.4226L50.9469 16.5249L53.5038 15.7985L52.6069 12.6419L50.4548 13.2534ZM35.0653 32.9769L14.2993 38.8768C14.3646 37.8612 14.7426 36.8908 15.3813 36.0985C16.0201 35.3063 16.8883 34.7311 17.8669 34.4518L29.704 31.0887C30.6833 30.8118 31.7242 30.8445 32.6841 31.1826C33.644 31.5207 34.4757 32.1474 35.0653 32.9769Z" fill="white"/>
<path d="M40.1697 40.9082L40.9589 40.684L40.062 37.5274L12.442 45.3746L13.3388 48.5312L40.1697 40.9082ZM41.7392 46.4322L42.5283 46.208L41.6315 43.0514L14.0114 50.8986L14.9082 54.0552L41.7392 46.4322Z" fill="white"/>
</g>
<defs>
<clipPath id="clip0_503_4175">
<rect width="52.5041" height="52.5041" fill="white" transform="translate(0.31686 14.7058) rotate(-15.8605)"/>
</clipPath>
</defs>
</svg>
