<svg width="15" height="9" viewBox="0 0 15 9" fill="none" xmlns="http://www.w3.org/2000/svg">
<path d="M4.66197 3.64141L6.37199 4.59474L6.37538 4.58963L7.56738 5.25417L7.57231 5.25691L9.31435 6.22809C9.88841 6.54803 10.5445 6.69057 11.1995 6.63768C11.8546 6.58478 12.4793 6.33884 12.9946 5.93094C13.5099 5.52305 13.8926 4.97152 14.0945 4.34608C14.2964 3.72065 14.3082 3.04941 14.1286 2.41723C13.949 1.78505 13.586 1.22033 13.0854 0.794459C12.5849 0.368591 11.9693 0.100706 11.3165 0.0246762C10.6637 -0.051353 10.0031 0.0678876 9.41803 0.367321C8.83301 0.666754 8.34991 1.13293 8.02982 1.70691L7.70305 2.29307L8.8645 2.94003L9.19082 2.3547C9.3828 2.01022 9.67263 1.7304 10.0236 1.55065C10.3747 1.37089 10.7711 1.29927 11.1628 1.34483C11.5546 1.3904 11.924 1.55111 12.2243 1.80664C12.5247 2.06217 12.7426 2.40105 12.8504 2.7804C12.9581 3.15975 12.951 3.56255 12.8299 3.93785C12.7087 4.31314 12.479 4.64408 12.1697 4.8888C11.8605 5.13353 11.4856 5.28104 11.0925 5.3127C10.6994 5.34436 10.3057 5.25873 9.96132 5.06664L8.26032 4.11835L8.25694 4.12345L5.30975 2.48041C4.73571 2.16027 4.07962 2.01756 3.42446 2.07031C2.7693 2.12307 2.14451 2.36894 1.62909 2.77681C1.11367 3.18468 0.730788 3.73625 0.52886 4.36174C0.326932 4.98723 0.315032 5.65856 0.494664 6.29081C0.674297 6.92307 1.03739 7.48786 1.53803 7.91374C2.03867 8.33963 2.65436 8.60748 3.30723 8.68342C3.96011 8.75937 4.62085 8.64 5.20588 8.34041C5.7909 8.04081 6.27395 7.57445 6.59392 7.00031L6.92024 6.41498L5.75942 5.76783L5.43246 6.35335C5.24048 6.69783 4.95066 6.97765 4.59964 7.1574C4.24862 7.33716 3.85218 7.40878 3.46045 7.36321C3.06873 7.31765 2.69931 7.15693 2.39893 6.9014C2.09855 6.64587 1.88069 6.307 1.77291 5.92765C1.66513 5.54829 1.67227 5.1455 1.79343 4.7702C1.91459 4.39491 2.14432 4.06397 2.45357 3.81925C2.76282 3.57452 3.1377 3.427 3.53079 3.39535C3.92389 3.36369 4.31754 3.44932 4.66197 3.64141Z" fill="white"/>
</svg>
